Patient4_TMGait_0pt7_02_right_23_EMG.mot
version=1
nRows=16
nColumns=33
inDegrees=no
endheader
time	1LAddLong	2LGlutMax	3LGlutMed	4LIliopsoas	5LSemiMemb	6LBicFemLong	7LRecFem	8LVastMed	9LVastLat	10LGasMed	11LTibAnt	12lTibPost	13LPeroneusLong	14LSol	15LExtDigLong	16LFlexDigLong	17RAddLong	18RGlutMax	19RGlutMed	20RIliopsoas	21RSemiMemb	22RBicFemLong	23RRecFem	24RVastMed	25RVastLat	26RGasMed	27RTibAnt	28RTibPost	29RPeroneusLong	30RSol	31RExtDigLong	32RFlexDigLong
26.375	-0.010071	-0.033875	0.007477	0.003967	-0.22995	0.11627	-0.054474	0.000305	0.06073	0.011902	-0.20218	0.005493	0.014648	-0.049438	-0.46173	-0.000916	-0.080566	-0.024414	-0.12619	0.032196	0.6665	0.25314	-0.31235	0.12695	0.021362	-0.011444	0.005951	-0.039368	0.38483	-0.65231	-0.001526	-0.015564
26.376	0.026855	-0.017242	0.007172	0.008087	-0.21744	-0.023956	-0.03006	-0.009003	0.18677	0.026398	-0.18112	-0.00351	0.070038	0.016022	0.085907	-0.004425	-0.033264	-0.13641	-0.22812	-0.04364	0.56549	0.17288	-0.31921	0.014954	-0.02655	-0.064087	-0.38071	-0.035706	0.46463	-0.065613	-0.004272	-0.007019
26.377	0.076447	0.11185	0.012207	0.022736	-0.017548	-0.48065	0.002747	-0.033417	0.27527	-0.036011	-0.12741	-0.008087	0.2063	-0.007019	0.28992	0.00885	-0.019531	-0.10986	-0.27206	-0.042419	0.20538	0.24704	-0.24292	-0.02243	-0.041351	0.00824	-0.37628	0.037689	0.33417	0.54428	-0.005035	-0.002747
26.378	0.13321	0.18234	0.015717	-0.013428	0.21744	-0.69778	0.034943	-0.049744	0.383	-0.054626	-0.009918	0.001221	-0.025482	0.058289	0.089874	0.007172	0.006409	-0.14114	0.04776	-0.018768	0.37598	-0.026398	-0.29877	-0.006256	-0.038452	0.012665	-0.16846	0.008698	-0.092926	0.68146	-0.006409	-0.003357
26.379	0.12741	0.20599	0.027161	-0.009918	0.27618	-0.64957	0.096893	-0.0383	0.2945	-0.068207	-0.004883	-0.001221	0.050812	-0.016937	0.06485	-0.001984	0.0177	-0.1886	0.010376	-0.031128	0.4393	-0.30624	-0.2385	-0.008087	-0.036316	-0.059509	0.051727	-0.009003	-0.41184	0.46188	-0.00061	-0.00412
26.38	0.069733	0.23178	0.050964	0.007477	0.21301	-0.30533	0.15701	-0.024261	0.13672	-0.037842	-0.014954	0.000305	0.095825	0.014038	-0.044861	0.005188	0.041656	-0.19501	0.062866	-0.026245	0.3714	-0.33585	-0.24262	-0.047455	-0.020599	-0.055237	0.070953	0.007782	-0.085754	0.017242	0.010986	-0.003815
26.381	0.028229	0.26718	0.039825	0.001984	0.13077	0.058746	0.16769	0.000305	0.12924	-0.006866	-0.042877	0.00351	0.16617	0.013885	-0.065918	-0.001678	0.05661	-0.25818	-0.16586	-0.019379	0.16373	-0.19318	-0.29892	-0.07843	-0.046234	-0.048828	0.058289	0.025787	0.6839	-0.1973	0	-0.018005
26.382	0.005951	0.3685	0.025024	0.003204	0.088043	0.32898	0.079041	0.014801	0.3186	0.006104	-0.087128	-0.002899	0.23666	-0.034332	-0.041809	0.00412	0.026245	-0.2446	0.001831	-0.006866	0.032959	-0.14252	-0.29419	-0.10178	-0.027924	-0.016022	0.069275	0.009613	0.48447	-0.24139	-0.001068	-0.012665
26.383	-0.008087	0.36743	0.016479	0.00824	0.061798	0.45929	-0.005951	0.016785	0.27435	0.020142	-0.04715	-0.005341	0.044861	-0.054016	0.026398	-0.001373	0.021667	-0.31799	0.5806	-0.054169	0.32822	-0.16983	-0.25818	-0.11063	-0.023041	-0.011444	0.077209	-0.034332	0.11612	-0.10925	-0.001221	-0.014954
26.384	-0.006256	0.35675	0.012665	0.009613	-0.02594	0.30151	0.010071	0.009155	0.057983	0.024109	-0.010071	-0.009613	-0.024719	-0.082855	0.043945	-0.007782	0.015411	-0.25253	0.078278	0.039673	0.4982	-0.24323	-0.29159	-0.005035	-0.000916	0.024261	0.021057	-0.066223	-0.11566	0.18723	0.000916	-0.016785
26.385	-0.005341	0.45578	0.070953	0.014038	-0.087585	0.17364	0.063324	0.020905	-0.16419	-0.022888	-0.007782	-0.003052	0.24567	-0.053406	0.096283	-0.001678	0.01236	-0.27618	-0.10788	0.04364	0.25665	-0.11581	-0.32059	-0.006714	0.011749	0.064545	-0.019684	0.030518	-0.21042	0.22781	-0.000458	-0.021667
26.386	-0.001984	0.54962	0.057068	0.006409	-0.08606	-0.13092	0.08255	0.008545	-0.26199	-0.047607	-0.024109	-0.001984	0.12741	0.007782	0.10834	0.002441	0.019836	-0.27985	-0.34393	0.011292	0.0177	0.17151	-0.30594	0.053558	0.009766	0.067902	-0.040588	0.014038	-0.48019	0.16617	0	-0.020599
26.387	0.007172	0.51148	0.080872	0.014191	-0.15671	-0.28412	0.10025	0.014648	-0.090485	-0.016785	-0.01709	0.012207	0.029907	0.046387	0.069275	0.005035	0.002747	-0.35248	-0.4216	-0.000458	-0.11688	0.25421	-0.31494	0.014954	0.027161	0.033264	-0.011597	-0.035706	-0.32394	0.30334	-0.001984	-0.020294
26.388	0.000153	0.56274	0.10239	0.010986	-0.11276	-0.16266	0.10178	0.028381	0.064545	-0.015106	0.005493	-0.005035	-0.074005	0.074615	0.052032	0.004272	0.016174	-0.24551	0.070953	0.076447	0.044861	0.12909	-0.30304	0.043335	0.018158	-0.00885	0.040894	-0.028534	-0.3302	0.21164	-0.000916	-0.016937
26.389	0.011139	0.58945	0.078735	0.010376	0.018158	0.076141	0.14923	0.034943	0.072327	-0.02182	0.001526	-0.001526	-0.06134	0.019531	0.031433	0.021515	0.023346	-0.26688	0.22827	0.06012	0.17838	0.063324	-0.29572	-0.024719	0.022278	-0.011292	0.031281	-0.016479	-0.037384	0.034943	-0.001831	-0.017395
26.39	0.019531	0.58304	0.022888	0.014343	0.023956	0.13351	0.18951	0.020905	0.13886	0.004272	0.012512	0.014038	-0.3038	-0.02533	-0.022125	0.08728	0.010834	-0.2832	0.87952	0.019531	0.072174	-0.021973	-0.32227	0.035248	0.028076	0.01297	0.01358	0.001526	0.12863	0.10422	-0.000305	-0.016022
